<?xml version="1.0" standalone="no"?>
<!DOCTYPE svg PUBLIC "-//W3C//DTD SVG 20010904//EN"
 "http://www.w3.org/TR/2001/REC-SVG-20010904/DTD/svg10.dtd">
<svg version="1.0" xmlns="http://www.w3.org/2000/svg"
 width="16.000000pt" height="16.000000pt" viewBox="0 0 16.000000 16.000000"
 preserveAspectRatio="xMidYMid meet">
<metadata>
Created by potrace 1.11, written by Peter Selinger 2001-2013
</metadata>
<g transform="translate(0.000000,16.000000) scale(0.006154,-0.006154)"
fill="#000000" stroke="none">
<path d="M1077 2529 c-110 -44 -225 -154 -267 -255 -16 -40 -30 -78 -30 -84 0
-6 -13 -39 -29 -73 -16 -34 -32 -87 -35 -117 l-6 -55 19 68 c30 114 87 152
246 163 94 7 314 -23 413 -56 151 -50 270 -126 271 -171 1 -15 -6 -32 -14 -39
-9 -7 -13 -20 -10 -29 3 -8 3 -12 -1 -8 -4 4 -13 2 -21 -4 -10 -9 -13 -5 -13
23 0 34 -1 35 -56 48 -43 11 -58 19 -65 38 -14 37 -34 21 -34 -29 0 -59 -11
-76 -35 -54 -20 18 -61 17 -67 -2 -6 -18 37 -38 48 -22 12 20 56 -7 54 -34 -2
-27 -18 -32 -38 -12 -19 18 -37 20 -37 3 0 -10 -2 -10 -8 -1 -21 33 -139 56
-180 34 -9 -5 -59 -11 -111 -14 -71 -4 -96 -9 -103 -21 -7 -13 -13 -13 -36 -4
-15 6 -34 19 -42 28 -9 9 -38 20 -65 23 -27 4 -54 12 -59 17 -17 17 -26 11
-41 -22 l-14 -33 -1 40 c0 60 -19 30 -26 -43 -7 -66 -15 -77 -54 -85 -17 -3
-11 -5 16 -6 23 0 47 -8 54 -16 15 -18 8 -104 -9 -115 -7 -3 -9 -14 -5 -24 5
-12 1 -19 -15 -23 -16 -4 -19 -9 -10 -19 6 -7 16 -11 24 -8 21 8 28 -14 12
-37 -14 -20 -16 -20 -26 -2 -18 29 -7 -99 17 -189 11 -42 23 -81 26 -87 3 -5
7 -28 8 -50 1 -27 6 -41 15 -41 8 0 13 -12 13 -31 0 -25 -15 -48 -76 -115 -41
-46 -74 -89 -73 -96 3 -28 -2 -37 -36 -57 -37 -21 -61 -64 -94 -170 -21 -65
-11 -66 29 -3 22 34 40 67 40 72 0 5 20 28 45 52 25 24 45 48 45 55 0 6 34 54
75 105 63 78 75 99 75 130 0 20 5 40 10 43 16 10 28 -36 19 -70 -4 -16 -7 -74
-6 -128 2 -94 1 -98 -18 -92 -43 13 -101 16 -127 6 -42 -16 -38 -68 10 -162
22 -41 42 -91 46 -111 6 -34 10 -38 36 -38 23 0 30 5 30 20 0 28 21 70 36 70
10 0 50 -54 63 -85 16 -42 71 -62 71 -26 0 11 3 26 6 34 3 9 -14 37 -45 71
-66 72 -87 165 -29 122 75 -54 129 -85 159 -91 19 -4 42 -15 53 -24 37 -32
111 -160 208 -358 55 -112 103 -203 107 -203 6 0 26 50 81 208 28 77 50 107
101 132 21 11 39 26 39 33 0 7 16 51 35 97 19 46 35 87 35 90 1 20 30 -40 30
-62 0 -15 5 -28 11 -28 8 0 10 18 7 55 -3 30 -1 55 2 55 22 0 26 81 21 368 -1
82 -19 190 -41 246 -6 16 -7 32 -2 35 5 3 11 14 15 23 3 10 31 51 61 91 49 65
57 81 66 143 13 90 13 147 0 139 -5 -3 -10 3 -10 14 0 12 -11 25 -27 33 -28
13 -28 15 -26 98 0 47 4 116 8 154 7 62 6 73 -18 120 -14 28 -33 76 -43 106
-41 139 -148 225 -380 306 -147 51 -216 56 -297 23z m420 -665 c-3 -3 -12 -4
-19 -1 -8 3 -5 6 6 6 11 1 17 -2 13 -5z m-795 -66 c-7 -7 -12 -8 -12 -2 0 14
12 26 19 19 2 -3 -1 -11 -7 -17z m268 -194 c0 -19 -13 -24 -45 -16 l-28 8 23
22 c18 16 27 19 37 11 7 -6 13 -17 13 -25z m480 11 c7 -9 19 -14 26 -11 7 3
16 1 19 -4 4 -6 1 -10 -5 -10 -6 0 -18 -7 -27 -15 -24 -25 -48 -14 -51 23 -4
35 16 44 38 17z m125 5 c6 -10 -15 -50 -28 -50 -12 0 -20 28 -13 45 6 17 32
20 41 5z m-771 -52 c-42 -11 -62 3 -23 16 23 8 36 8 41 1 4 -6 -4 -13 -18 -17z
m320 13 c3 -4 19 -11 36 -15 45 -8 27 -30 -18 -22 -32 5 -51 19 -52 39 0 10
28 9 34 -2z m146 -21 c0 -5 -7 -10 -16 -10 -8 0 -12 5 -9 10 3 6 10 10 16 10
5 0 9 -4 9 -10z m-419 -54 c-23 -53 -36 -60 -27 -14 6 29 35 73 43 64 2 -2 -5
-24 -16 -50z m104 34 c12 -37 -14 -53 -41 -26 -17 18 -18 33 -1 39 24 10 36 7
42 -13z m380 -9 c-3 -6 -14 -11 -23 -11 -13 0 -13 2 4 14 21 15 30 14 19 -3z
m328 -85 c-10 -14 -21 -26 -25 -26 -12 0 3 63 21 90 l16 25 3 -32 c2 -20 -4
-42 -15 -57z m-403 21 c0 -8 -11 -20 -25 -27 -22 -12 -27 -11 -45 5 -30 27
-25 35 25 35 31 0 45 -4 45 -13z m450 -72 c-14 -16 -40 -20 -40 -6 0 10 17 19
39 20 11 1 11 -2 1 -14z m-70 -101 c11 -29 3 -54 -11 -33 -9 15 -12 59 -4 59
3 0 10 -12 15 -26z m-380 -97 c0 -13 -6 -32 -14 -43 -14 -18 -15 -18 -22 10
-5 22 -3 32 11 43 24 17 25 17 25 -10z m-237 -4 c-7 -2 -19 -2 -25 0 -7 3 -2
5 12 5 14 0 19 -2 13 -5z m277 -647 c0 -2 -9 -6 -20 -9 -11 -3 -18 -1 -14 4 5
9 34 13 34 5z m75 -16 c-3 -5 -13 -10 -21 -10 -8 0 -14 5 -14 10 0 6 9 10 21
10 11 0 17 -4 14 -10z m211 -67 c-6 -6 -36 9 -36 18 0 5 9 4 20 -3 10 -7 18
-14 16 -15z"/>
<path d="M1393 1960 c1 -11 5 -20 9 -20 11 0 10 28 -1 35 -6 3 -9 -4 -8 -15z"/>
<path d="M572 1660 c0 -19 2 -27 5 -17 2 9 2 25 0 35 -3 9 -5 1 -5 -18z"/>
<path d="M596 1587 c3 -10 9 -15 12 -12 3 3 0 11 -7 18 -10 9 -11 8 -5 -6z"/>
<path d="M1851 644 c-24 -17 -24 -19 -18 -141 4 -76 2 -121 -4 -118 -5 4 -9
14 -9 24 0 9 -6 26 -14 36 -11 16 -17 17 -29 7 -11 -10 -17 -10 -22 -1 -6 8
-10 7 -16 -2 -11 -17 0 -200 13 -215 11 -15 -26 -38 -153 -98 -60 -28 -108
-58 -132 -84 l-39 -40 39 -4 c21 -3 52 -1 68 3 25 7 31 15 33 40 4 49 18 66
74 87 48 18 53 18 79 3 33 -19 44 -11 62 41 7 18 17 35 22 36 6 2 17 -44 25
-102 9 -58 20 -109 24 -113 9 -8 0 214 -9 240 -4 10 3 16 24 20 29 6 30 9 31
59 2 131 0 125 46 150 l43 23 29 -29 c19 -17 32 -24 36 -17 4 6 5 15 1 21 -5
9 19 80 28 80 3 0 21 -7 40 -15 20 -8 41 -15 46 -15 16 0 38 41 45 81 l6 36
-92 7 c-251 18 -252 18 -277 0z"/>
<path d="M984 410 c3 -14 6 -28 6 -32 0 -11 30 -10 30 1 0 5 -9 19 -21 32
l-21 24 6 -25z"/>
<path d="M1030 356 c0 -11 133 -220 168 -263 22 -29 41 -43 57 -43 32 0 38 33
12 67 -71 93 -237 260 -237 239z"/>
<path d="M2486 308 c-9 -35 -7 -76 4 -83 6 -4 10 15 10 49 0 60 -4 70 -14 34z"/>
<path d="M336 145 c-8 -22 14 -123 31 -136 23 -20 26 -2 9 50 -9 27 -16 59
-16 70 0 25 -16 36 -24 16z"/>
<path d="M448 97 c-14 -18 -29 -47 -32 -65 -7 -28 -5 -32 12 -32 29 0 40 19
43 78 2 28 3 52 3 52 -1 0 -13 -15 -26 -33z"/>
<path d="M1330 30 c11 -20 30 -28 30 -12 0 11 -22 32 -32 32 -5 0 -4 -9 2 -20z"/>
<path d="M2487 30 c-6 -23 10 -37 25 -22 12 12 4 42 -11 42 -5 0 -11 -9 -14
-20z"/>
</g>
</svg>
